<svg width="8" height="9" viewBox="0 0 8 9" fill="none" xmlns="http://www.w3.org/2000/svg">
<g clip-path="url(#clip0_389_580)">
<path d="M7.29429 9C7.29429 9 7.29429 2.45455 0.706055 2.45455C0.706055 0.204545 7.29429 0 7.29429 0V9Z" fill="white"/>
<path d="M8.00023 0.984159C8.00023 0.984159 9.41948 0 8.75935 0C6.80397 0 0.132324 0.251125 0.132324 2.50113C6.44055 3.41698 6.97511 9 6.97511 9L7.03393 5.46689C6.76813 4.86372 5.62225 3.72834 5.62225 3.72834C4.56349 2.94428 3.93605 2.34772 2.093 1.85343C2.95136 1.42306 4.46661 1.1857 6.0732 1.05234C6.46567 1.01633 8.00023 0.984159 8.00023 0.984159Z" fill="#C5C5C5"/>
</g>
<defs>
<clipPath id="clip0_389_580">
<rect width="8" height="9" fill="white"/>
</clipPath>
</defs>
</svg>
