<svg width="204" height="40" viewBox="0 0 204 40" fill="none" xmlns="http://www.w3.org/2000/svg">
<path fill-rule="evenodd" clip-rule="evenodd" d="M3.71129 0.94449C3.46361 1.74143 3.41862 2.41891 3.42323 5.28189C3.42832 8.43666 3.46012 8.80767 3.87566 10.5685C4.75126 14.2775 6.35828 18.4178 8.31646 22.0097L9.47788 24.1401L8.19643 24.2209C6.68846 24.3159 5.93892 24.671 5.52449 25.4869C5.27411 25.9794 5.24645 26.639 5.24645 32.1095C5.24645 38.7997 5.25583 38.8691 6.25097 39.5943C6.67955 39.9066 6.89861 39.9211 11.179 39.9211H15.6584L15.7049 38.6005L15.7514 37.28L15.1275 36.7499C14.7844 36.4583 14.3833 35.9216 14.2365 35.557C13.9812 34.9234 13.9827 34.8762 14.2741 34.4882C14.5623 34.1042 14.6679 34.0796 16.2108 34.037C18.0549 33.9859 18.5994 34.1784 18.5994 34.8811C18.5994 35.4647 18.0406 36.4521 17.4902 36.8413C17.0168 37.1758 17.0097 37.202 17.0097 38.5904V40H21.2192C26.0143 40 26.4327 39.9225 27.0614 38.9188C27.4162 38.3523 27.4229 38.2512 27.4717 32.6619C27.4989 29.5372 27.4768 26.6793 27.4223 26.3108C27.312 25.5637 26.7158 24.7551 26.085 24.4968C25.8587 24.404 25.1253 24.2859 24.4555 24.2342L23.2374 24.1401L24.1375 22.7975C25.6671 20.5157 27.8129 16.9158 27.8178 16.6229C27.8188 16.5676 27.301 16.2159 26.667 15.8409C24.4796 14.5472 22.7758 13.0611 22.1897 11.9358C21.8086 11.2043 21.8738 11.1887 22.6548 11.824C25.5004 14.1388 27.9561 15.6257 30.7195 16.7071C32.3371 17.3403 35.0394 17.891 37.1024 18.008L38.9474 18.1126V17.6551C38.9474 16.9536 38.2043 14.8964 37.5777 13.8625C35.5645 10.5409 32.4125 7.91478 27.5811 5.53391C26.0947 4.80152 24.7228 4.15781 24.5322 4.10368C24.2356 4.01941 24.094 4.15907 23.5442 5.07752C21.3145 8.80372 18.7594 16.332 17.7842 22.0492L17.4141 24.219H16.5183H15.6227L15.5217 23.3653C15.3279 21.7296 14.6156 18.446 14.0465 16.5653C12.232 10.5696 9.28537 5.43686 5.30527 1.33901L4.0049 0L3.71129 0.94449ZM34.5342 32.4646L34.5757 38.9742H36.3244H38.073L38.1145 32.4646L38.156 25.9549H36.3244H34.4927L34.5342 32.4646ZM31.9546 28.5691C30.5505 29.3565 30.3642 29.4179 29.2522 29.4602L28.058 29.5057V32.4251V35.3446L29.1573 35.3918C29.8903 35.4234 30.3934 35.5332 30.6675 35.7213C31.1809 36.0739 33.4669 37.3172 33.6017 37.3172C33.6566 37.3172 33.7014 35.1513 33.7014 32.504C33.7014 29.8568 33.6478 27.6981 33.5822 27.7071C33.5165 27.7161 32.7843 28.104 31.9546 28.5691ZM0 32.4251V36.3704H1.27175H2.5435V35.6732C2.5435 34.5512 2.61377 34.4767 3.67329 34.4767H4.6101V32.4327V30.3886L3.61654 30.3417L2.62299 30.2947L2.57529 29.3873L2.52761 28.4799H1.2638H0V32.4251Z" fill="#E10914"/>
<path d="M50.085 20V6.90909H55.2498C56.2385 6.90909 57.0822 7.08594 57.7811 7.43963C58.4842 7.78906 59.019 8.28551 59.3855 8.92898C59.7562 9.56818 59.9416 10.3203 59.9416 11.1854C59.9416 12.0547 59.7541 12.8026 59.3791 13.429C59.0041 14.0511 58.4608 14.5284 57.7491 14.8608C57.0417 15.1932 56.1852 15.3594 55.1795 15.3594H51.7214V13.1349H54.7321C55.2605 13.1349 55.6994 13.0625 56.0488 12.9176C56.3983 12.7727 56.6582 12.5554 56.8287 12.2656C57.0034 11.9759 57.0907 11.6158 57.0907 11.1854C57.0907 10.7507 57.0034 10.3842 56.8287 10.0859C56.6582 9.78764 56.3961 9.56179 56.0424 9.40838C55.693 9.25071 55.252 9.17188 54.7193 9.17188H52.8528V20H50.085ZM57.1547 14.0426L60.4082 20H57.3528L54.1696 14.0426H57.1547ZM64.8739 20H61.908L66.4272 6.90909H69.994L74.5068 20H71.5408L68.2617 9.90057H68.1595L64.8739 20ZM64.6886 14.8544H71.6943V17.0149H64.6886V14.8544ZM76.8024 20V6.90909H82.0439C83.0069 6.90909 83.8102 7.05185 84.4537 7.33736C85.0971 7.62287 85.5808 8.01918 85.9047 8.52628C86.2285 9.02912 86.3905 9.60866 86.3905 10.2649C86.3905 10.7763 86.2882 11.2259 86.0836 11.6136C85.8791 11.9972 85.5978 12.3125 85.2399 12.5597C84.8862 12.8026 84.4814 12.9751 84.0254 13.0774V13.2053C84.524 13.2266 84.9906 13.3672 85.4253 13.6271C85.8642 13.8871 86.22 14.2514 86.4927 14.7202C86.7655 15.1847 86.9018 15.7386 86.9018 16.3821C86.9018 17.0767 86.7292 17.6967 86.3841 18.2422C86.0432 18.7834 85.5382 19.2116 84.8692 19.527C84.2001 19.8423 83.3755 20 82.3954 20H76.8024ZM79.5701 17.7372H81.8265C82.5978 17.7372 83.1603 17.5902 83.514 17.2962C83.8677 16.9979 84.0446 16.6016 84.0446 16.1072C84.0446 15.745 83.9572 15.4254 83.7825 15.1484C83.6078 14.8714 83.3585 14.6541 83.0346 14.4964C82.715 14.3388 82.3336 14.2599 81.8905 14.2599H79.5701V17.7372ZM79.5701 12.3871H81.622C82.0013 12.3871 82.3379 12.321 82.6319 12.1889C82.9302 12.0526 83.1646 11.8608 83.3351 11.6136C83.5098 11.3665 83.5971 11.0703 83.5971 10.7251C83.5971 10.2521 83.4288 9.87074 83.0922 9.58097C82.7598 9.29119 82.2868 9.14631 81.6731 9.14631H79.5701V12.3871ZM89.4228 20V6.90909H94.6643C95.6273 6.90909 96.4306 7.05185 97.0741 7.33736C97.7175 7.62287 98.2012 8.01918 98.5251 8.52628C98.8489 9.02912 99.0109 9.60866 99.0109 10.2649C99.0109 10.7763 98.9086 11.2259 98.704 11.6136C98.4995 11.9972 98.2182 12.3125 97.8603 12.5597C97.5066 12.8026 97.1018 12.9751 96.6458 13.0774V13.2053C97.1444 13.2266 97.611 13.3672 98.0457 13.6271C98.4846 13.8871 98.8404 14.2514 99.1131 14.7202C99.3859 15.1847 99.5222 15.7386 99.5222 16.3821C99.5222 17.0767 99.3496 17.6967 99.0045 18.2422C98.6636 18.7834 98.1586 19.2116 97.4895 19.527C96.8205 19.8423 95.9959 20 95.0158 20H89.4228ZM92.1905 17.7372H94.4469C95.2182 17.7372 95.7807 17.5902 96.1344 17.2962C96.4881 16.9979 96.665 16.6016 96.665 16.1072C96.665 15.745 96.5776 15.4254 96.4029 15.1484C96.2282 14.8714 95.9789 14.6541 95.655 14.4964C95.3354 14.3388 94.954 14.2599 94.5109 14.2599H92.1905V17.7372ZM92.1905 12.3871H94.2424C94.6216 12.3871 94.9583 12.321 95.2523 12.1889C95.5506 12.0526 95.785 11.8608 95.9555 11.6136C96.1302 11.3665 96.2175 11.0703 96.2175 10.7251C96.2175 10.2521 96.0492 9.87074 95.7126 9.58097C95.3802 9.29119 94.9072 9.14631 94.2935 9.14631H92.1905V12.3871ZM104.811 6.90909V20H102.043V6.90909H104.811ZM107.31 9.19105V6.90909H118.061V9.19105H114.053V20H111.317V9.19105H107.31ZM50.085 38V24.9091H58.7527V27.1911H52.8528V30.3104H58.1774V32.5923H52.8528V38H50.085ZM64.1021 24.9091V38H61.3343V24.9091H64.1021ZM67.0993 38V24.9091H69.867V35.718H75.4792V38H67.0993ZM78.0322 24.9091H81.4455L85.0506 33.7045H85.204L88.8091 24.9091H92.2225V38H89.5378V29.4794H89.4292L86.0414 37.9361H84.2133L80.8255 29.4474H80.7168V38H78.0322V24.9091Z" fill="#E10914"/>
</svg>
